<svg width="114" height="30" viewBox="0 0 114 30" fill="none" xmlns="http://www.w3.org/2000/svg">
<path d="M48.64 6.81V3.39H33.13V24H48.64V20.58H36.88V15.21H47.53V11.79H36.88V6.81H48.64ZM63.9016 3.03V10.89C62.6716 9.15 60.8116 8.13 58.5316 8.13C54.4216 8.13 51.4216 11.49 51.4216 16.23C51.4216 21 54.4216 24.36 58.5316 24.36C60.8116 24.36 62.6716 23.34 63.9016 21.6V24H67.5616V3.03H63.9016ZM59.5216 21.24C56.9116 21.24 55.0516 19.14 55.0516 16.23C55.0516 13.32 56.9116 11.25 59.5216 11.25C62.1016 11.25 63.9016 13.32 63.9016 16.23C63.9016 19.14 62.1016 21.24 59.5216 21.24ZM82.1819 8.49V18.3C81.9419 19.95 80.3519 21.24 78.4319 21.24C76.5119 21.24 75.1619 19.74 75.1619 17.64V8.49H71.6219V18.36C71.6219 21.87 73.9919 24.36 77.3819 24.36C79.4219 24.36 81.2219 23.37 82.1819 21.93V24H85.8419V8.49H82.1819ZM95.0652 24H98.5152L105.085 8.49H101.185L96.7752 19.77L92.2752 8.49H88.4052L95.0652 24ZM109.489 6.15C110.629 6.15 111.559 5.16 111.559 4.05C111.559 2.94 110.629 1.98 109.489 1.98C108.319 1.98 107.389 2.94 107.389 4.05C107.389 5.16 108.319 6.15 109.489 6.15ZM107.629 24H111.289V8.49H107.629V24Z" fill="#0A033C"/>
<rect width="25" height="30" rx="5" fill="#FF6652"/>
<path d="M5.75345 8.12402C5.75297 8.12402 5.75242 8.12402 5.75194 8.12402C5.58169 8.12402 5.42157 8.19039 5.30066 8.31099C5.17842 8.43293 5.11108 8.5953 5.11108 8.76815V18.4267C5.11108 18.7808 5.40036 19.0697 5.756 19.0706C7.25527 19.0742 9.76716 19.3867 11.5 21.2001V11.0922C11.5 10.9721 11.4694 10.8593 11.4115 10.766C9.98923 8.47554 7.25612 8.12754 5.75345 8.12402Z" fill="white"/>
<path d="M18.889 18.4267V8.76815C18.889 8.5953 18.8217 8.43293 18.6994 8.31099C18.5785 8.19039 18.4183 8.12402 18.2482 8.12402C18.2477 8.12402 18.2471 8.12402 18.2466 8.12402C16.744 8.1276 14.0109 8.4756 12.5886 10.766C12.5307 10.8594 12.5001 10.9722 12.5001 11.0922V21.2001C14.233 19.3867 16.7449 19.0742 18.2441 19.0706C18.5997 19.0697 18.889 18.7808 18.889 18.4267Z" fill="white"/>
<path d="M20.3559 10.3516H19.8889V18.4268C19.8889 19.3311 19.1521 20.0685 18.2464 20.0707C16.9747 20.0738 14.8779 20.3224 13.3928 21.728C15.9612 21.0991 18.6687 21.5079 20.2118 21.8595C20.4044 21.9034 20.6035 21.8581 20.7579 21.7351C20.9117 21.6123 20.9999 21.4289 20.9999 21.232V10.9956C21 10.6405 20.711 10.3516 20.3559 10.3516Z" fill="white"/>
<path d="M4.11103 18.4268V10.3516H3.644C3.28897 10.3516 3 10.6405 3 10.9956V21.2318C3 21.4288 3.08824 21.6121 3.24206 21.7349C3.3963 21.8578 3.59521 21.9034 3.78818 21.8594C5.33122 21.5077 8.0388 21.0989 10.6071 21.7278C9.12208 20.3223 7.02523 20.0737 5.75352 20.0707C4.84788 20.0685 4.11103 19.3311 4.11103 18.4268Z" fill="white"/>
</svg>
